<svg width="32" height="33" viewBox="0 0 32 33" fill="none" xmlns="http://www.w3.org/2000/svg">
<path d="M25.3333 12.4999C24.0666 12.4999 22.9666 12.1221 22.0333 11.3666C21.1 10.611 20.4778 9.65547 20.1666 8.49992H11.8C11.5555 9.43325 11.0946 10.239 10.4173 10.9173C9.73998 11.5955 8.9342 12.0564 7.99998 12.2999V20.6666C9.15554 20.9777 10.1111 21.5999 10.8666 22.5333C11.6222 23.4666 12 24.5666 12 25.8333C12 27.2999 11.4778 28.5555 10.4333 29.5999C9.38887 30.6444 8.13331 31.1666 6.66665 31.1666C5.19998 31.1666 3.94442 30.6444 2.89998 29.5999C1.85554 28.5555 1.33331 27.2999 1.33331 25.8333C1.33331 24.5666 1.71109 23.4666 2.46665 22.5333C3.2222 21.5999 4.17776 20.9777 5.33331 20.6666V12.2999C4.17776 11.9888 3.2222 11.3666 2.46665 10.4333C1.71109 9.49992 1.33331 8.41103 1.33331 7.16659C1.33331 5.69992 1.85554 4.44436 2.89998 3.39992C3.94442 2.35547 5.19998 1.83325 6.66665 1.83325C7.91109 1.83325 8.99998 2.21103 9.93331 2.96659C10.8666 3.72214 11.4889 4.6777 11.8 5.83325H20.1666C20.4778 4.6777 21.1 3.72214 22.0333 2.96659C22.9666 2.21103 24.0666 1.83325 25.3333 1.83325C26.8 1.83325 28.0555 2.35547 29.1 3.39992C30.1444 4.44436 30.6666 5.69992 30.6666 7.16659C30.6666 8.63325 30.1444 9.88881 29.1 10.9333C28.0555 11.9777 26.8 12.4999 25.3333 12.4999ZM6.66665 28.4999C7.39998 28.4999 8.02798 28.2333 8.55065 27.6999C9.07331 27.1666 9.3342 26.5444 9.33331 25.8333C9.33331 25.0999 9.07242 24.4724 8.55065 23.9506C8.02887 23.4288 7.40087 23.1675 6.66665 23.1666C5.95554 23.1666 5.33331 23.4279 4.79998 23.9506C4.26665 24.4733 3.99998 25.1008 3.99998 25.8333C3.99998 26.5444 4.26665 27.1666 4.79998 27.6999C5.33331 28.2333 5.95554 28.4999 6.66665 28.4999ZM6.66665 9.83325C7.39998 9.83325 8.02798 9.57236 8.55065 9.05059C9.07331 8.52881 9.3342 7.90081 9.33331 7.16659C9.33242 6.43236 9.07154 5.80481 8.55065 5.28392C8.02976 4.76303 7.40176 4.5017 6.66665 4.49992C5.95554 4.49992 5.33331 4.76125 4.79998 5.28392C4.26665 5.80659 3.99998 6.43414 3.99998 7.16659C3.99998 7.89903 4.26665 8.52703 4.79998 9.05059C5.33331 9.57414 5.95554 9.83503 6.66665 9.83325ZM25.3333 31.1666C23.8666 31.1666 22.6111 30.6444 21.5666 29.5999C20.5222 28.5555 20 27.2999 20 25.8333C20 24.3666 20.5222 23.111 21.5666 22.0666C22.6111 21.0221 23.8666 20.4999 25.3333 20.4999C26.8 20.4999 28.0555 21.0221 29.1 22.0666C30.1444 23.111 30.6666 24.3666 30.6666 25.8333C30.6666 27.2999 30.1444 28.5555 29.1 29.5999C28.0555 30.6444 26.8 31.1666 25.3333 31.1666ZM25.3333 28.4999C26.0666 28.4999 26.6946 28.2333 27.2173 27.6999C27.74 27.1666 28.0009 26.5444 28 25.8333C28 25.0999 27.7391 24.4724 27.2173 23.9506C26.6955 23.4288 26.0675 23.1675 25.3333 23.1666C24.5991 23.1657 23.9715 23.427 23.4506 23.9506C22.9298 24.4741 22.6684 25.1017 22.6666 25.8333C22.6666 26.5444 22.928 27.1666 23.4506 27.6999C23.9733 28.2333 24.6009 28.4999 25.3333 28.4999ZM25.3333 9.83325C26.0666 9.83325 26.6946 9.57236 27.2173 9.05059C27.74 8.52881 28.0009 7.90081 28 7.16659C27.9991 6.43236 27.7382 5.80481 27.2173 5.28392C26.6964 4.76303 26.0684 4.5017 25.3333 4.49992C24.5982 4.49814 23.9706 4.75947 23.4506 5.28392C22.9306 5.80836 22.6693 6.43592 22.6666 7.16659C22.664 7.89725 22.9253 8.52525 23.4506 9.05059C23.976 9.57592 24.6035 9.83681 25.3333 9.83325Z" fill="white"/>
</svg>
