<svg width="20" height="20" viewBox="0 0 20 20" fill="none" xmlns="http://www.w3.org/2000/svg">
<path d="M2.96917 3.38592C2.85867 3.38592 2.75268 3.34203 2.67454 3.26389C2.5964 3.18575 2.55251 3.07976 2.55251 2.96926C2.55251 2.85875 2.5964 2.75277 2.67454 2.67463C2.75268 2.59649 2.85867 2.55259 2.96917 2.55259L17.0308 2.55176C17.1413 2.55176 17.2473 2.59566 17.3255 2.6738C17.4036 2.75194 17.4475 2.85792 17.4475 2.96842C17.4475 3.07893 17.4036 3.18491 17.3255 3.26305C17.2473 3.34119 17.1413 3.38509 17.0308 3.38509L2.96917 3.38592ZM2.96917 10.4176C2.85867 10.4176 2.75268 10.3737 2.67454 10.2956C2.5964 10.2174 2.55251 10.1114 2.55251 10.0009C2.55251 9.89042 2.5964 9.78444 2.67454 9.7063C2.75268 9.62816 2.85867 9.58426 2.96917 9.58426L17.0308 9.58259C17.1413 9.58259 17.2473 9.62649 17.3255 9.70463C17.4036 9.78277 17.4475 9.88875 17.4475 9.99926C17.4475 10.1098 17.4036 10.2157 17.3255 10.2939C17.2473 10.372 17.1413 10.4159 17.0308 10.4159L2.96917 10.4176ZM2.96917 17.4493C2.85867 17.4493 2.75268 17.4054 2.67454 17.3272C2.5964 17.2491 2.55251 17.1431 2.55251 17.0326C2.55251 16.9221 2.5964 16.8161 2.67454 16.738C2.75268 16.6598 2.85867 16.6159 2.96917 16.6159L17.0308 16.6143C17.1413 16.6143 17.2473 16.6582 17.3255 16.7363C17.4036 16.8144 17.4475 16.9204 17.4475 17.0309C17.4475 17.1414 17.4036 17.2474 17.3255 17.3256C17.2473 17.4037 17.1413 17.4476 17.0308 17.4476L2.96917 17.4493Z" fill="white"/>
</svg>
